<svg version="1.2" xmlns="http://www.w3.org/2000/svg" viewBox="0 0 160 160" width="160" height="160"><style>.a{fill:none;stroke:#283044;stroke-miterlimit:100;stroke-width:4}.b{fill:none;stroke:#283044;stroke-miterlimit:100;stroke-width:1.5}</style><path fill-rule="evenodd" class="a" d="m0 0.5v-0.8h160v0.8h-111.5v159.2h-0.7v-159.2zm48.5 159.2h111.5v0.8h-160v-0.8h47.8v0.3h0.7z"/><path class="b" d="m0 32.5v-0.8h160v0.8zm0 32v-0.8h160v0.8zm0 32v-0.8h160v0.8zm0 32v-0.8h160v0.8z"/><path class="b" d="m79.6 0h0.8v160h-0.8zm32 0h0.8v160h-0.8zm32 0h0.8v160h-0.8zm-128 0h0.8v160h-0.8z"/></svg>