<svg version="1.2" xmlns="http://www.w3.org/2000/svg" viewBox="0 0 619 581" width="619" height="581">
	<title>ZingPuppet</title>
	<style>
		.s0 { fill: none;stroke: #000000;stroke-linecap: round;stroke-linejoin: round;stroke-width: 15 } 
		.s1 { fill: #F2EFE6;stroke: #000000;stroke-linecap: round;stroke-linejoin: round;stroke-width: 15 } 
		.s2 { fill: #F2EFE6;stroke: #000000;stroke-linecap: round;stroke-miterlimit:100;stroke-width: 15 } 
		.s3 { fill: #F2EFE6;stroke: #000000;stroke-linejoin: round;stroke-width: 15 } 
		.s4 { fill: #000000;stroke: #000000;stroke-miterlimit:100;stroke-width: 15 } 
		.s5 { fill: #F2EFE6 } 
	</style>
	<g id="Puppet">
		<path id="Left Leg" fill-rule="evenodd" class="s0" d="m282.8 484.2l23.8 25.8 11.4 40h6"/>
		<path id="Right Leg" fill-rule="evenodd" class="s0" d="m177.9 491.6l15.2 33.7 3.9 37.7 7 1"/>
		<path id="Left Arm" fill-rule="evenodd" class="s0" d="m301 382.6l11.5 42.4 24.5 51.4"/>
		<path id="Body" class="s1" d="m150.5 343.5c0 0-9.5 17-10.2 39.4-1.9 56.5-11.5 69-4.4 87.5 6.8 18 30.2 25 90.5 23.6 56.1-1.3 82.1-9.9 80.1-57-2.7-63.2-9.9-89.9-9.9-89.9z"/>
		<path id="Right Arm" fill-rule="evenodd" class="s0" d="m139.8 384.8l-19.5 51.8-3.5 62.7"/>
		<path id="Face" class="s2" d="m104.4 341.2c33.8 32 54.6 35.2 86.1 41.3 29.4 5.8 80.5 3.4 102.8 0 14.9-2.4 44.8-29.6 51.9-43.4 24.3-47.7 10-169 3.8-195.7-7.9-33.5-51.4-98.8-208.9-49.9-155.7 48.3-49.5 234.7-35.7 247.7z"/>
		<path id="Layer 2" class="s3" d="m63 247l81.6 12c3.9 24.9-9.8 61.1 53 58.9 56-2 44.2-33 47.2-51.9l38.3-4c0 0-1.6 48.2 47.2 41.9 46.2-6 38.9-31 37.3-60.9-1-18-82.5-18-84.5 14l-39.3 4c-2-29-89.4-27-98.3-6l-4.9 18-25.5-6-1-11z"/>
		<path id="Hair" class="s4" d="m63.8 33c0 0 0.1 13.4-6.8 18.1-11.1 7.5-30.9 4.4-30.9 4.4 0 0 3.1 13.4 9.9 21.5-6.3 9.6-26.7 18.6-21 30 5.7 11.4-3.2 29.7 2 41 5.2 11.3 14.3 78.3 14.3 78.3 0 0 12.1 32.7 19.3 44 0 0 13.2-25.6 18.1-32.4 16.3-22.6 19.9 5.6 19.9 5.6 0 0 22.4-23.3 49.4-84.5 9-19.6 5.1 29.4 5.1 29.4l15.4-19.3-5.6-19.2 7.5-6.9 7.9-6.5-0.4 25.8c33.7 14 111.3 18.2 111.3 18.2l-10.5-29.8c23.6 18.6 62.1 27.2 62.1 27.2l0.2-24.9 38 21 7-30.3c0 0 6.7-20.9 0-43.9l-28.5-40.5c0 0-62-43.2-102.5-36 0 0-71.1-8.4-88-5.3-12.2 2.2-28.3 2.1-41.9 11.2-13.5 9.1-51.3 3.8-51.3 3.8z"/>
	</g>
	<g id="Speech Bubble">
		<path id="Layer 1" fill-rule="evenodd" class="s5" d="m541.5 539c-34.6 0-64.5-21.6-64.5-44 0-22.4 29.9-37 64.5-37 34.6 0 61.5 14.6 61.5 37 0 22.4-26.9 44-61.5 44z"/>
		<path id="Speech Bubble" class="s2" d="m477 495c21.2-77-14.7-161.2-14.7-161.2 0 0 120.9 33 140.7 161.2"/>
	</g>
</svg>